HIERARCHY
ROOT Hips
{
	OFFSET 0.000000 100.481300 0.000000
	CHANNELS 6 Xposition Yposition Zposition Xrotation Yrotation Zrotation
	JOINT Spine
	{
		OFFSET -0.279200 12.230698 -2.892100
		CHANNELS 3 Xrotation Yrotation Zrotation
		JOINT Spine1
		{
			OFFSET -0.325700 14.269203 -3.374200
			CHANNELS 3 Xrotation Yrotation Zrotation
			JOINT Spine2
			{
				OFFSET -0.372300 16.307602 -0.352600
				CHANNELS 3 Xrotation Yrotation Zrotation
				JOINT Neck
				{
					OFFSET -0.418800 17.814194 8.416900
					CHANNELS 3 Xrotation Yrotation Zrotation
					JOINT Head
					{
						OFFSET 0.000000 7.031097 3.806800
						CHANNELS 3 Xrotation Yrotation Zrotation
						JOINT HeadTop_End
						{
							OFFSET 0.000000 24.646606 12.978600
							CHANNELS 3 Xrotation Yrotation Zrotation
							End Site
							{
								OFFSET 0.000000 27.854965 0.000000
							}
						}
					}
				}
				JOINT LeftShoulder
				{
					OFFSET 16.952999 14.495407 -7.737500
					CHANNELS 3 Xrotation Yrotation Zrotation
					JOINT LeftArm
					{
						OFFSET 9.308998 -2.777710 0.208600
						CHANNELS 3 Xrotation Yrotation Zrotation
						JOINT LeftForeArm
						{
							OFFSET 29.972298 0.000000 0.000000
							CHANNELS 3 Xrotation Yrotation Zrotation
							JOINT LeftHand
							{
								OFFSET 26.026505 0.000000 0.000000
								CHANNELS 3 Xrotation Yrotation Zrotation
								JOINT LeftHandThumb1
								{
									OFFSET 12.240501 -7.147949 9.207150
									CHANNELS 3 Xrotation Yrotation Zrotation
									JOINT LeftHandThumb2
									{
										OFFSET 4.138618 -2.389435 2.389433
										CHANNELS 3 Xrotation Yrotation Zrotation
										JOINT LeftHandThumb3
										{
											OFFSET 2.726913 -1.574387 1.574386
											CHANNELS 3 Xrotation Yrotation Zrotation
											JOINT LeftHandThumb4
											{
												OFFSET 3.941010 -2.275345 2.275342
												CHANNELS 3 Xrotation Yrotation Zrotation
												End Site
												{
													OFFSET -0.005798 5.087799 0.009903
												}
											}
										}
									}
								}
								JOINT LeftHandIndex1
								{
									OFFSET 24.424698 -1.985611 5.953459
									CHANNELS 3 Xrotation Yrotation Zrotation
									JOINT LeftHandIndex2
									{
										OFFSET 6.426697 0.000000 0.000000
										CHANNELS 3 Xrotation Yrotation Zrotation
										JOINT LeftHandIndex3
										{
											OFFSET 5.337898 0.000000 0.000000
											CHANNELS 3 Xrotation Yrotation Zrotation
											JOINT LeftHandIndex4
											{
												OFFSET 4.409401 0.000000 0.000000
												CHANNELS 3 Xrotation Yrotation Zrotation
												End Site
												{
													OFFSET 0.000000 4.409363 0.014373
												}
											}
										}
									}
								}
								JOINT LeftHandMiddle1
								{
									OFFSET 23.810104 0.000000 0.000000
									CHANNELS 3 Xrotation Yrotation Zrotation
									JOINT LeftHandMiddle2
									{
										OFFSET 7.176498 0.000000 0.000000
										CHANNELS 3 Xrotation Yrotation Zrotation
										JOINT LeftHandMiddle3
										{
											OFFSET 6.774902 0.000000 0.000000
											CHANNELS 3 Xrotation Yrotation Zrotation
											JOINT LeftHandMiddle4
											{
												OFFSET 5.403328 0.000000 0.000000
												CHANNELS 3 Xrotation Yrotation Zrotation
												End Site
												{
													OFFSET -0.027702 5.403244 0.017414
												}
											}
										}
									}
								}
								JOINT LeftHandRing1
								{
									OFFSET 22.908401 -0.839279 -6.020567
									CHANNELS 3 Xrotation Yrotation Zrotation
									JOINT LeftHandRing2
									{
										OFFSET 6.337502 0.000000 0.000000
										CHANNELS 3 Xrotation Yrotation Zrotation
										JOINT LeftHandRing3
										{
											OFFSET 5.779297 0.000000 0.000000
											CHANNELS 3 Xrotation Yrotation Zrotation
											JOINT LeftHandRing4
											{
												OFFSET 4.965698 0.000000 0.000000
												CHANNELS 3 Xrotation Yrotation Zrotation
												End Site
												{
													OFFSET 0.000000 4.965668 0.016186
												}
											}
										}
									}
								}
								JOINT LeftHandPinky1
								{
									OFFSET 20.037003 -1.530319 -10.950146
									CHANNELS 3 Xrotation Yrotation Zrotation
									JOINT LeftHandPinky2
									{
										OFFSET 5.254700 0.000000 0.000000
										CHANNELS 3 Xrotation Yrotation Zrotation
										JOINT LeftHandPinky3
										{
											OFFSET 4.810204 0.000000 0.000000
											CHANNELS 3 Xrotation Yrotation Zrotation
											JOINT LeftHandPinky4
											{
												OFFSET 3.647202 0.000000 0.000000
												CHANNELS 3 Xrotation Yrotation Zrotation
												End Site
												{
													OFFSET 0.000000 3.647186 0.011889
												}
											}
										}
									}
								}
							}
						}
					}
				}
				JOINT RightShoulder
				{
					OFFSET -15.141001 14.495407 -7.737500
					CHANNELS 3 Xrotation Yrotation Zrotation
					JOINT RightArm
					{
						OFFSET -9.308998 -2.777710 0.208500
						CHANNELS 3 Xrotation Yrotation Zrotation
						JOINT RightForeArm
						{
							OFFSET -29.972300 0.000000 0.000000
							CHANNELS 3 Xrotation Yrotation Zrotation
							JOINT RightHand
							{
								OFFSET -26.026505 0.000000 0.000000
								CHANNELS 3 Xrotation Yrotation Zrotation
								JOINT RightHandThumb1
								{
									OFFSET -12.240601 -7.148026 9.207092
									CHANNELS 3 Xrotation Yrotation Zrotation
									JOINT RightHandThumb2
									{
										OFFSET -4.138618 -2.389435 2.389433
										CHANNELS 3 Xrotation Yrotation Zrotation
										JOINT RightHandThumb3
										{
											OFFSET -2.726974 -1.574417 1.574421
											CHANNELS 3 Xrotation Yrotation Zrotation
											JOINT RightHandThumb4
											{
												OFFSET -3.941010 -2.275345 2.275343
												CHANNELS 3 Xrotation Yrotation Zrotation
												End Site
												{
													OFFSET 0.005814 5.087799 0.009927
												}
											}
										}
									}
								}
								JOINT RightHandIndex1
								{
									OFFSET -24.424698 -1.985657 5.953444
									CHANNELS 3 Xrotation Yrotation Zrotation
									JOINT RightHandIndex2
									{
										OFFSET -6.426697 0.000000 0.000000
										CHANNELS 3 Xrotation Yrotation Zrotation
										JOINT RightHandIndex3
										{
											OFFSET -5.337898 0.000000 0.000000
											CHANNELS 3 Xrotation Yrotation Zrotation
											JOINT RightHandIndex4
											{
												OFFSET -4.409401 0.000000 0.000000
												CHANNELS 3 Xrotation Yrotation Zrotation
												End Site
												{
													OFFSET 0.000000 4.409363 0.014408
												}
											}
										}
									}
								}
								JOINT RightHandMiddle1
								{
									OFFSET -23.810097 0.000000 0.000000
									CHANNELS 3 Xrotation Yrotation Zrotation
									JOINT RightHandMiddle2
									{
										OFFSET -7.176498 0.000000 0.000000
										CHANNELS 3 Xrotation Yrotation Zrotation
										JOINT RightHandMiddle3
										{
											OFFSET -6.774902 0.000000 0.000000
											CHANNELS 3 Xrotation Yrotation Zrotation
											JOINT RightHandMiddle4
											{
												OFFSET -5.403328 0.000000 0.000000
												CHANNELS 3 Xrotation Yrotation Zrotation
												End Site
												{
													OFFSET 0.027702 5.403244 0.017457
												}
											}
										}
									}
								}
								JOINT RightHandRing1
								{
									OFFSET -22.908302 -0.839325 -6.020576
									CHANNELS 3 Xrotation Yrotation Zrotation
									JOINT RightHandRing2
									{
										OFFSET -6.337502 0.000000 0.000000
										CHANNELS 3 Xrotation Yrotation Zrotation
										JOINT RightHandRing3
										{
											OFFSET -5.779297 0.000000 0.000000
											CHANNELS 3 Xrotation Yrotation Zrotation
											JOINT RightHandRing4
											{
												OFFSET -4.965698 0.000000 0.000000
												CHANNELS 3 Xrotation Yrotation Zrotation
												End Site
												{
													OFFSET 0.000000 4.965668 0.016226
												}
											}
										}
									}
								}
								JOINT RightHandPinky1
								{
									OFFSET -20.037003 -1.530334 -10.950259
									CHANNELS 3 Xrotation Yrotation Zrotation
									JOINT RightHandPinky2
									{
										OFFSET -5.254700 0.000000 0.000000
										CHANNELS 3 Xrotation Yrotation Zrotation
										JOINT RightHandPinky3
										{
											OFFSET -4.810204 0.000000 0.000000
											CHANNELS 3 Xrotation Yrotation Zrotation
											JOINT RightHandPinky4
											{
												OFFSET -3.647202 0.000000 0.000000
												CHANNELS 3 Xrotation Yrotation Zrotation
												End Site
												{
													OFFSET 0.000000 3.647186 0.011917
												}
											}
										}
									}
								}
							}
						}
					}
				}
			}
		}
	}
	JOINT LeftUpLeg
	{
		OFFSET 15.427100 -6.655098 0.678600
		CHANNELS 3 Xrotation Yrotation Zrotation
		JOINT LeftLeg
		{
			OFFSET 4.081073 -39.591068 13.024000
			CHANNELS 3 Xrotation Yrotation Zrotation
			JOINT LeftFoot
			{
				OFFSET -4.081074 -37.707932 -15.979700
				CHANNELS 3 Xrotation Yrotation Zrotation
				JOINT LeftToeBase
				{
					OFFSET 5.346399 -15.068900 20.645000
					CHANNELS 3 Xrotation Yrotation Zrotation
					JOINT LeftToe_End
					{
						OFFSET 2.754700 0.931300 11.300900
						CHANNELS 3 Xrotation Yrotation Zrotation
						End Site
						{
							OFFSET 0.000000 11.669021 0.000000
						}
					}
				}
			}
		}
	}
	JOINT RightUpLeg
	{
		OFFSET -15.569500 -6.655098 0.678600
		CHANNELS 3 Xrotation Yrotation Zrotation
		JOINT RightLeg
		{
			OFFSET -4.081825 -39.591045 13.023800
			CHANNELS 3 Xrotation Yrotation Zrotation
			JOINT RightFoot
			{
				OFFSET 4.081824 -37.707954 -15.979600
				CHANNELS 3 Xrotation Yrotation Zrotation
				JOINT RightToeBase
				{
					OFFSET -5.346400 -15.068900 20.645000
					CHANNELS 3 Xrotation Yrotation Zrotation
					JOINT RightToe_End
					{
						OFFSET -2.754700 0.931300 11.300900
						CHANNELS 3 Xrotation Yrotation Zrotation
						End Site
						{
							OFFSET 0.000000 11.669021 0.000000
						}
					}
				}
			}
		}
	}
}
MOTION
Frames: 4
Frame Time: 0.033333
0.108320 95.738289 -1.424542 -4.120023 -1.702990 0.663491 3.463690 1.721349 -2.521430 0.710880 0.526605 -0.263030 0.710192 0.521669 -0.266621 2.609731 -0.754816 0.156819 18.950514 -7.303244 0.624142 0.000000 -0.000000 0.000000 2.730606 -4.471828 -12.384160 -6.603780 -10.273118 -60.669162 0.000005 -16.775184 0.000005 21.485689 -10.082265 -12.336727 3.396452 -6.557376 3.586549 15.353574 21.247749 9.263476 -12.578827 5.211040 15.704548 -0.000002 -0.000003 0.000003 -1.222345 -0.461791 -28.262368 0.291718 1.827318 -18.139056 0.038966 0.675372 -6.605501 0.000000 0.000003 -0.000002 0.095146 4.196344 -33.991208 0.439514 2.228198 -22.314293 0.188187 1.474418 -14.546783 -0.000001 0.000000 0.000002 5.761725 10.460347 -44.834513 0.435448 2.218266 -22.209395 0.278409 1.786203 -17.716899 0.000001 -0.000002 0.000002 11.871779 15.209069 -50.263827 0.411984 2.159920 -21.594861 0.689710 2.759708 -28.059085 0.000000 0.000002 0.000000 1.996585 1.476376 14.937834 -2.025628 7.814283 63.299987 -0.000002 12.108131 -0.000013 6.522651 12.381309 10.265053 -1.352786 9.111895 0.370094 17.058304 -29.720967 -6.078607 -13.949257 -13.457309 -16.103995 -0.000000 -0.000000 0.000001 -1.823902 1.946409 21.104016 0.341702 -1.752634 22.062559 0.059801 -0.744763 9.182105 0.000002 0.000001 -0.000000 -0.809713 -1.799973 27.787967 0.365854 -1.811048 22.839212 0.241655 -1.482176 18.519436 0.000000 0.000001 -0.000001 2.161588 -6.996789 31.854592 0.441464 -1.980950 25.124424 0.360403 -1.798067 22.666254 0.000001 0.000000 -0.000000 4.447216 -11.624199 37.638847 0.491092 -2.083418 26.523593 0.610440 -2.306952 29.638960 -0.000001 0.000002 -0.000000 -3.126570 8.023976 6.912317 14.823908 8.427677 0.886795 -5.942334 5.961003 -8.536485 1.066072 0.000003 0.000002 -0.000000 -0.000000 0.000000 -0.615656 -9.164437 -8.740838 15.328539 -8.338504 1.644320 -8.839976 -5.829979 6.915859 -1.455183 -0.000007 -0.000001 0.000000 -0.000000 -0.000000 
0.640972 95.853485 -0.540882 -4.274176 -0.192983 -0.421304 3.426046 1.637783 -2.385866 0.512663 0.497962 -0.565127 0.512009 0.432701 -0.536041 2.769847 -0.479838 0.028556 18.098430 -5.107271 0.471921 -0.000002 0.000000 0.000000 2.698774 -4.831272 -12.712347 -8.302817 -9.052960 -60.352965 -0.000004 -16.552497 -0.000002 23.718018 -4.307598 -11.941464 3.461801 -6.433796 3.611254 15.300061 20.526269 9.237249 -12.705215 4.475787 15.990800 -0.000002 0.000003 0.000000 -1.290260 -0.568362 -28.199126 0.301700 1.857510 -18.449717 0.039897 0.683202 -6.682344 -0.000003 0.000000 -0.000002 0.043851 4.128835 -34.142862 0.442833 2.236220 -22.399243 0.197066 1.508196 -14.887700 -0.000001 -0.000002 0.000001 5.559221 10.257259 -44.847838 0.444842 2.241117 -22.450746 0.293267 1.832046 -18.187795 -0.000001 0.000002 -0.000001 11.176811 14.659749 -50.137847 0.415049 2.167691 -21.676451 0.695178 2.769929 -28.172532 0.000000 0.000003 -0.000000 1.651770 2.178878 13.896581 -3.272108 7.580837 64.602552 -0.000005 11.740399 0.000023 7.237110 10.213147 9.228286 -1.374484 8.562341 -0.151809 17.070731 -29.453032 -6.016868 -14.037705 -12.394141 -15.849451 0.000001 -0.000002 -0.000005 -1.753701 1.927852 20.762549 0.355323 -1.785883 22.503919 0.061766 -0.756783 9.331785 0.000003 -0.000000 -0.000002 -0.815871 -1.790786 27.811052 0.395907 -1.880784 23.772251 0.236743 -1.467440 18.328761 -0.000001 0.000002 0.000002 2.041139 -6.779131 32.179849 0.457535 -2.014839 25.585477 0.358684 -1.793969 22.611579 -0.000001 0.000000 0.000001 4.175776 -11.237152 37.561580 0.516059 -2.132687 27.202526 0.609466 -2.305247 29.614747 0.000000 0.000001 -0.000001 -3.222793 7.985316 7.601668 15.417660 7.136190 0.991396 -6.775544 5.819377 -8.029464 1.066073 -0.000009 -0.000001 0.000000 -0.000000 0.000000 0.508070 -9.496321 -7.005432 14.185078 -6.327848 1.529683 -8.951709 -5.301040 7.435825 -1.690719 -0.000002 -0.000000 0.000000 -0.000002 -0.000000 
1.148271 95.893105 0.409303 -4.470850 1.681208 -1.458167 3.423601 1.437723 -2.318079 0.351513 0.463765 -0.868883 0.350537 0.327881 -0.817631 2.898728 -0.238585 -0.110983 16.517423 -2.566375 0.211621 -0.000000 0.000000 -0.000000 2.610189 -5.751713 -13.565049 -9.151950 -10.022504 -58.895478 -0.000002 -15.708926 0.000003 26.619819 0.105707 -11.724059 3.496729 -6.085930 3.685050 15.162446 18.655746 9.172946 -13.045509 2.581210 16.719222 -0.000000 0.000001 -0.000000 -1.465226 -0.858315 -28.035811 0.329589 1.939024 -19.291287 0.043081 0.709845 -6.944288 0.000001 -0.000003 -0.000001 -0.090714 3.957596 -34.570613 0.452794 2.260261 -22.653337 0.221734 1.598066 -15.797995 0.000000 -0.000001 -0.000001 5.037514 9.732203 -44.906513 0.471038 2.303450 -23.111535 0.334265 1.952344 -19.429320 0.000000 -0.000001 -0.000002 9.397617 13.230881 -49.856286 0.424296 2.190780 -21.919494 0.710631 2.798552 -28.490379 0.000000 0.000000 0.000000 1.289771 3.138450 12.244860 -4.378905 6.730242 66.080742 -0.000002 11.417686 0.000000 7.552143 6.504284 10.638265 -1.435425 7.116040 -1.546973 17.085810 -28.722595 -5.872624 -14.305345 -9.569953 -15.189019 0.000001 0.000001 0.000005 -1.570091 1.873120 19.871887 0.392528 -1.873094 23.669046 0.067174 -0.789004 9.732852 -0.000002 -0.000000 -0.000002 -0.829858 -1.772060 27.881327 0.481432 -2.064000 26.257190 0.223965 -1.428286 17.822783 -0.000001 -0.000000 0.000001 1.714056 -6.215023 33.060059 0.502084 -2.105295 26.824581 0.353653 -1.781830 22.450142 0.000001 -0.000000 -0.000003 3.473558 -10.214592 37.394251 0.585632 -2.262847 29.016836 0.607242 -2.301344 29.559505 0.000000 0.000001 -0.000001 -3.410709 7.935578 8.285802 16.174130 5.485258 1.082518 -7.660477 5.659591 -7.418558 1.066073 -0.000007 -0.000001 -0.000000 -0.000000 -0.000000 1.744414 -9.640692 -5.564322 13.658099 -6.484430 1.441757 -9.278681 -4.184277 8.692320 -2.132596 -0.000004 0.000001 0.000000 -0.000001 -0.000000 
1.611564 95.884140 1.268969 -4.930107 5.283991 -2.427771 3.539513 1.151710 -2.330242 0.156324 0.404804 -1.166085 0.155305 0.212975 -1.104985 2.841489 -0.010270 -0.158555 14.309668 -0.356146 -0.095864 0.000002 0.000000 -0.000000 2.198032 -7.791597 -14.686963 -9.670326 -11.783002 -57.097287 0.000000 -14.361422 -0.000013 28.739254 1.665759 -10.612779 3.547290 -5.564969 3.786235 14.974621 16.063632 9.092139 -13.539044 -0.020356 17.696042 0.000002 -0.000002 0.000003 -1.704793 -1.289152 -27.811089 0.372919 2.058589 -20.533618 0.049429 0.760189 -7.439589 -0.000001 0.000002 -0.000001 -0.281641 3.729367 -35.236096 0.469647 2.300188 -23.076974 0.259958 1.727427 -17.115223 0.000001 0.000000 -0.000001 4.320115 9.009047 -45.039435 0.511620 2.396222 -24.101108 0.396981 2.121678 -21.193471 -0.000001 -0.000001 0.000000 6.985899 11.241942 -49.620484 0.439841 2.229004 -22.322684 0.734754 2.842506 -28.980899 -0.000000 0.000000 0.000000 1.111029 3.605385 11.083246 -4.798061 6.631495 66.988016 -0.000005 11.551200 0.000039 6.680594 2.723451 14.426464 -1.531410 5.069458 -3.573695 17.071443 -27.634983 -5.705517 -14.774150 -5.516524 -14.264345 0.000001 -0.000001 -0.000002 -1.313392 1.782249 18.626488 0.448517 -1.995896 25.327566 0.075439 -0.835789 10.316122 -0.000000 -0.000001 -0.000002 -0.845046 -1.756839 28.000581 0.618559 -2.321150 29.839901 0.206240 -1.371928 17.097109 -0.000000 0.000000 0.000001 1.223682 -5.438122 34.358259 0.570626 -2.235580 28.634194 0.345455 -1.761868 22.184938 0.000001 0.000001 -0.000000 2.502247 -8.758340 37.233963 0.693663 -2.447326 31.645171 0.604816 -2.297053 29.498887 0.000000 -0.000002 0.000000 -4.110239 7.769996 8.730026 17.235637 2.871526 1.672124 -8.275994 4.851136 -6.643902 1.066071 0.000003 0.000000 0.000000 -0.000000 0.000000 3.246217 -9.623457 -4.169177 13.499754 -8.389534 1.335030 -9.216323 -1.923818 9.622148 -3.274496 -0.000008 -0.000001 0.000000 0.000001 0.000000 
